<svg width="2384" height="520" viewBox="0 0 2384 520" fill="none" xmlns="http://www.w3.org/2000/svg">
<path d="M583.728 247.484C596.043 254.256 606.008 264.611 612.304 277.176H658.56C643.097 221.287 584.609 185.773 527.78 197.983C529.358 213.402 528.28 228.978 524.593 244.033C542.942 236.251 566.657 237.704 583.728 247.484Z" fill="white"/>
<path d="M243.643 377.031C152.188 373.647 152.217 242.367 243.643 238.997C254.526 239.003 265.254 241.582 274.951 246.522C284.649 251.463 293.041 258.626 299.444 267.426C301.008 270.172 302.696 272.845 304.48 275.444L304.568 275.613L335.252 243.021C314.752 213.777 279.642 195.399 243.62 195.678C94.8372 201.155 94.7491 414.837 243.62 420.351H270.053L313.372 377.031H243.643Z" fill="white"/>
<path d="M509.432 211.831C506.304 79.2443 322.483 57.4305 288.004 184.951C302.734 190.535 316.329 198.744 328.13 209.18C328.815 191.348 336.381 174.474 349.239 162.1C362.098 149.726 379.25 142.814 397.095 142.814C448.579 142.079 482.75 199.672 457.955 244.401C455.752 247.338 454.123 250.723 451.957 253.711L370.663 335.019L370.788 335.144L285.618 420.35C304.532 420.35 325.207 420.35 346.485 420.35L467.882 299.093C480.865 288.557 491.333 275.255 498.521 260.159C505.709 245.062 509.437 228.551 509.432 211.831Z" fill="white"/>
<path d="M662.378 297.368H550.915V336.282H613.53C608.079 348.424 599.233 358.731 588.059 365.961C576.884 373.191 563.858 377.035 550.548 377.032H405.238L361.919 420.351C400.275 420.351 438.278 420.351 472.133 420.351H550.548C616.908 420.916 669.184 361.466 662.378 297.368Z" fill="white"/>
<path d="M861.003 398.383C849.453 398.383 838.781 396.482 828.987 392.681C819.192 388.734 810.713 383.252 803.549 376.235C796.386 369.218 790.758 360.958 786.664 351.455C782.717 341.953 780.744 331.573 780.744 320.317C780.744 309.06 782.717 298.68 786.664 289.178C790.758 279.676 796.386 271.416 803.549 264.399C810.859 257.382 819.411 251.972 829.206 248.171C839.001 244.224 849.673 242.251 861.222 242.251C872.332 242.251 882.785 244.151 892.58 247.952C902.375 251.607 910.634 257.162 917.359 264.618L907.053 274.924C900.766 268.492 893.822 263.887 886.22 261.109C878.619 258.186 870.432 256.724 861.66 256.724C852.45 256.724 843.898 258.332 836.004 261.548C828.11 264.618 821.239 269.077 815.391 274.924C809.543 280.626 804.938 287.351 801.576 295.099C798.36 302.701 796.752 311.107 796.752 320.317C796.752 329.527 798.36 338.006 801.576 345.754C804.938 353.356 809.543 360.081 815.391 365.928C821.239 371.63 828.11 376.089 836.004 379.305C843.898 382.375 852.45 383.91 861.66 383.91C870.432 383.91 878.619 382.448 886.22 379.524C893.822 376.6 900.766 371.922 907.053 365.49L917.359 375.796C910.634 383.252 902.375 388.88 892.58 392.681C882.785 396.482 872.259 398.383 861.003 398.383Z" fill="white"/>
<path d="M944.277 397.067V234.356H959.846V397.067H944.277Z" fill="white"/>
<path d="M1045.71 398.163C1034.6 398.163 1024.58 395.678 1015.67 390.708C1006.89 385.591 999.951 378.647 994.834 369.875C989.717 360.958 987.159 350.798 987.159 339.395C987.159 327.846 989.717 317.685 994.834 308.914C999.951 300.142 1006.89 293.271 1015.67 288.301C1024.44 283.33 1034.45 280.845 1045.71 280.845C1057.11 280.845 1067.2 283.33 1075.97 288.301C1084.89 293.271 1091.83 300.142 1096.8 308.914C1101.92 317.685 1104.48 327.846 1104.48 339.395C1104.48 350.798 1101.92 360.958 1096.8 369.875C1091.83 378.647 1084.89 385.591 1075.97 390.708C1067.05 395.678 1056.97 398.163 1045.71 398.163ZM1045.71 384.348C1054.04 384.348 1061.42 382.521 1067.86 378.866C1074.29 375.065 1079.33 369.802 1082.99 363.078C1086.79 356.207 1088.69 348.312 1088.69 339.395C1088.69 330.331 1086.79 322.437 1082.99 315.712C1079.33 308.987 1074.29 303.797 1067.86 300.142C1061.42 296.341 1054.11 294.441 1045.93 294.441C1037.74 294.441 1030.43 296.341 1024 300.142C1017.57 303.797 1012.45 308.987 1008.65 315.712C1004.85 322.437 1002.95 330.331 1002.95 339.395C1002.95 348.312 1004.85 356.207 1008.65 363.078C1012.45 369.802 1017.57 375.065 1024 378.866C1030.43 382.521 1037.67 384.348 1045.71 384.348Z" fill="white"/>
<path d="M1179.46 398.163C1169.67 398.163 1161.12 396.336 1153.81 392.681C1146.5 389.027 1140.8 383.544 1136.7 376.235C1132.75 368.925 1130.78 359.788 1130.78 348.824V281.942H1146.35V347.07C1146.35 359.35 1149.35 368.633 1155.34 374.919C1161.48 381.059 1170.03 384.129 1181 384.129C1189.04 384.129 1195.98 382.521 1201.83 379.305C1207.82 375.942 1212.36 371.118 1215.43 364.832C1218.64 358.546 1220.25 351.017 1220.25 342.245V281.942H1235.82V397.067H1220.91V365.49L1223.32 371.191C1219.67 379.67 1213.96 386.322 1206.22 391.146C1198.61 395.824 1189.7 398.163 1179.46 398.163Z" fill="white"/>
<path d="M1320.66 398.163C1309.69 398.163 1299.82 395.678 1291.05 390.708C1282.43 385.737 1275.63 378.866 1270.66 370.095C1265.69 361.177 1263.2 350.944 1263.2 339.395C1263.2 327.699 1265.69 317.466 1270.66 308.695C1275.63 299.923 1282.43 293.125 1291.05 288.301C1299.82 283.33 1309.69 280.845 1320.66 280.845C1330.74 280.845 1339.73 283.111 1347.63 287.643C1355.67 292.175 1362.03 298.827 1366.71 307.598C1371.53 316.223 1373.94 326.822 1373.94 339.395C1373.94 351.821 1371.6 362.42 1366.93 371.191C1362.25 379.963 1355.89 386.687 1347.85 391.366C1339.95 395.897 1330.89 398.163 1320.66 398.163ZM1321.75 384.348C1329.94 384.348 1337.25 382.521 1343.68 378.866C1350.26 375.065 1355.38 369.802 1359.03 363.078C1362.83 356.207 1364.73 348.312 1364.73 339.395C1364.73 330.331 1362.83 322.437 1359.03 315.712C1355.38 308.987 1350.26 303.797 1343.68 300.142C1337.25 296.341 1329.94 294.441 1321.75 294.441C1313.71 294.441 1306.48 296.341 1300.04 300.142C1293.61 303.797 1288.49 308.987 1284.69 315.712C1280.89 322.437 1278.99 330.331 1278.99 339.395C1278.99 348.312 1280.89 356.207 1284.69 363.078C1288.49 369.802 1293.61 375.065 1300.04 378.866C1306.48 382.521 1313.71 384.348 1321.75 384.348ZM1365.17 397.067V362.42L1366.71 339.175L1364.51 315.931V234.356H1380.08V397.067H1365.17Z" fill="white"/>
<path d="M1404.58 397.067V374.042L1463.79 318.124C1468.47 313.884 1471.91 310.083 1474.1 306.721C1476.29 303.359 1477.75 300.289 1478.48 297.511C1479.36 294.733 1479.8 292.175 1479.8 289.836C1479.8 283.696 1477.68 279.018 1473.44 275.802C1469.35 272.439 1463.28 270.758 1455.24 270.758C1448.81 270.758 1442.81 272.001 1437.26 274.486C1431.85 276.971 1427.24 280.845 1423.44 286.108L1397.57 269.442C1403.42 260.671 1411.6 253.727 1422.13 248.61C1432.65 243.493 1444.79 240.935 1458.53 240.935C1469.93 240.935 1479.87 242.836 1488.35 246.636C1496.98 250.291 1503.63 255.481 1508.31 262.206C1513.13 268.931 1515.54 276.971 1515.54 286.327C1515.54 291.298 1514.89 296.268 1513.57 301.239C1512.4 306.063 1509.92 311.18 1506.11 316.589C1502.46 321.998 1497.05 328.065 1489.89 334.79L1440.77 381.059L1433.97 368.121H1520.59V397.067H1404.58Z" fill="white"/>
<path d="M1614.63 398.383C1602.93 398.383 1592.11 396.482 1582.17 392.681C1572.38 388.734 1563.83 383.252 1556.52 376.235C1549.35 369.218 1543.72 360.958 1539.63 351.455C1535.68 341.953 1533.71 331.573 1533.71 320.317C1533.71 309.06 1535.68 298.68 1539.63 289.178C1543.72 279.676 1549.43 271.416 1556.74 264.399C1564.04 257.382 1572.6 251.972 1582.39 248.171C1592.33 244.224 1603.15 242.251 1614.85 242.251C1626.54 242.251 1637.21 244.078 1646.86 247.733C1656.66 251.388 1664.99 256.943 1671.86 264.399L1661.77 274.705C1655.34 268.273 1648.25 263.668 1640.5 260.89C1632.75 258.112 1624.42 256.724 1615.5 256.724C1606 256.724 1597.23 258.332 1589.19 261.548C1581.3 264.618 1574.35 269.077 1568.36 274.924C1562.51 280.626 1557.9 287.351 1554.54 295.099C1551.33 302.701 1549.72 311.107 1549.72 320.317C1549.72 329.381 1551.33 337.787 1554.54 345.535C1557.9 353.283 1562.51 360.081 1568.36 365.928C1574.35 371.63 1581.3 376.089 1589.19 379.305C1597.23 382.375 1605.93 383.91 1615.28 383.91C1624.06 383.91 1632.32 382.594 1640.06 379.963C1647.96 377.331 1655.19 372.872 1661.77 366.586L1670.98 378.866C1663.67 385.299 1655.12 390.196 1645.33 393.558C1635.53 396.775 1625.3 398.383 1614.63 398.383ZM1655.41 376.893V320.317H1670.98V378.866L1655.41 376.893Z" fill="white"/>
<path d="M1758.14 398.163C1746.15 398.163 1735.62 395.678 1726.56 390.708C1717.49 385.591 1710.4 378.647 1705.29 369.875C1700.17 360.958 1697.61 350.798 1697.61 339.395C1697.61 327.992 1700.03 317.905 1704.85 309.133C1709.82 300.362 1716.54 293.491 1725.02 288.52C1733.65 283.404 1743.3 280.845 1753.97 280.845C1764.79 280.845 1774.36 283.33 1782.7 288.301C1791.18 293.125 1797.83 299.996 1802.65 308.914C1807.48 317.685 1809.89 327.846 1809.89 339.395C1809.89 340.126 1809.81 340.93 1809.67 341.807C1809.67 342.538 1809.67 343.342 1809.67 344.219H1709.45V332.597H1801.34L1795.2 337.202C1795.2 328.869 1793.37 321.486 1789.71 315.054C1786.2 308.475 1781.38 303.359 1775.24 299.704C1769.1 296.049 1762.01 294.222 1753.97 294.222C1746.08 294.222 1738.98 296.049 1732.7 299.704C1726.41 303.359 1721.52 308.475 1718.01 315.054C1714.5 321.632 1712.74 329.161 1712.74 337.64V340.053C1712.74 348.824 1714.64 356.572 1718.45 363.297C1722.39 369.875 1727.8 375.065 1734.67 378.866C1741.69 382.521 1749.66 384.348 1758.57 384.348C1765.59 384.348 1772.1 383.106 1778.09 380.621C1784.23 378.135 1789.49 374.334 1793.88 369.218L1802.65 379.305C1797.53 385.445 1791.1 390.123 1783.35 393.339C1775.75 396.555 1767.35 398.163 1758.14 398.163Z" fill="white"/>
<path d="M1873.59 398.163C1862.78 398.163 1854.44 395.24 1848.6 389.392C1842.75 383.544 1839.82 375.285 1839.82 364.613V256.504H1855.39V363.735C1855.39 370.46 1857.07 375.65 1860.44 379.305C1863.95 382.96 1868.92 384.787 1875.35 384.787C1882.22 384.787 1887.92 382.813 1892.45 378.866L1897.93 390.05C1894.86 392.827 1891.14 394.874 1886.75 396.19C1882.51 397.506 1878.13 398.163 1873.59 398.163ZM1819.21 294.88V281.942H1890.48V294.88H1819.21Z" fill="white"/>
<path d="M1980.36 280.845C1989.72 280.845 1997.9 282.673 2004.92 286.327C2012.09 289.836 2017.64 295.245 2021.59 302.555C2025.68 309.864 2027.73 319.074 2027.73 330.185V397.067H2012.16V331.72C2012.16 319.586 2009.09 310.449 2002.95 304.309C1996.95 298.023 1988.48 294.88 1977.51 294.88C1969.32 294.88 1962.16 296.561 1956.02 299.923C1950.03 303.139 1945.35 307.891 1941.99 314.177C1938.77 320.317 1937.16 327.772 1937.16 336.544V397.067H1921.59V234.356H1937.16V313.519L1934.09 307.598C1937.75 299.265 1943.59 292.76 1951.64 288.082C1959.68 283.257 1969.25 280.845 1980.36 280.845Z" fill="white"/>
<path d="M2114.3 398.163C2102.31 398.163 2091.78 395.678 2082.72 390.708C2073.66 385.591 2066.57 378.647 2061.45 369.875C2056.33 360.958 2053.77 350.798 2053.77 339.395C2053.77 327.992 2056.19 317.905 2061.01 309.133C2065.98 300.362 2072.71 293.491 2081.19 288.52C2089.81 283.404 2099.46 280.845 2110.13 280.845C2120.95 280.845 2130.53 283.33 2138.86 288.301C2147.34 293.125 2153.99 299.996 2158.81 308.914C2163.64 317.685 2166.05 327.846 2166.05 339.395C2166.05 340.126 2165.98 340.93 2165.83 341.807C2165.83 342.538 2165.83 343.342 2165.83 344.219H2065.62V332.597H2157.5L2151.36 337.202C2151.36 328.869 2149.53 321.486 2145.88 315.054C2142.37 308.475 2137.54 303.359 2131.4 299.704C2125.26 296.049 2118.17 294.222 2110.13 294.222C2102.24 294.222 2095.15 296.049 2088.86 299.704C2082.57 303.359 2077.68 308.475 2074.17 315.054C2070.66 321.632 2068.91 329.161 2068.91 337.64V340.053C2068.91 348.824 2070.81 356.572 2074.61 363.297C2078.55 369.875 2083.96 375.065 2090.83 378.866C2097.85 382.521 2105.82 384.348 2114.74 384.348C2121.75 384.348 2128.26 383.106 2134.25 380.621C2140.39 378.135 2145.66 374.334 2150.04 369.218L2158.81 379.305C2153.7 385.445 2147.26 390.123 2139.52 393.339C2131.91 396.555 2123.51 398.163 2114.3 398.163Z" fill="white"/>
<path d="M2193.35 397.067V281.942H2208.27V313.3L2206.73 307.817C2209.95 299.046 2215.36 292.394 2222.96 287.862C2230.56 283.184 2239.99 280.845 2251.25 280.845V295.976C2250.66 295.976 2250.08 295.976 2249.49 295.976C2248.91 295.83 2248.32 295.757 2247.74 295.757C2235.6 295.757 2226.1 299.485 2219.23 306.94C2212.36 314.25 2208.92 324.702 2208.92 338.298V397.067H2193.35Z" fill="white"/>
</svg>
